<svg xmlns="http://www.w3.org/2000/svg" width="264" height="88"><title>default-skin 2</title><g fill="none"><path fill="#fff" d="M67 59.5v3.77c-6.3.84-9.18 5.75-10 9.73 2.22-2.83 5.56-5.1 10-5.1v3.6l6-5.92-6-6.08z"/><path fill="#fff" d="M13 29v-5h2v3h3v2h-5zm0-14h5v2h-3v3h-2v-5zm18 0v5h-2v-3h-3v-2h5zm0 14h-5v-2h3v-3h2v5zM62 24v5h-2v-3h-3v-2h5zm0-4h-5v-2h3v-3h2v5zm8 0v-5h2v3h3v2h-5zm0 4h5v2h-3v3h-2v-5zM20.6 66l-5.67-5.66 1.4-1.4L22 64.58l5.66-5.67 1.4 1.4-5.64 5.7 5.67 5.66-1.4 1.4-5.7-5.64-5.66 5.67-1.4-1.4 5.64-5.7zm91.18-.97L110 63.5l3-3.5h-10v-2h10l-3-3.5 1.78-1.47L117 59l-5.2 6.03zm40.44 0L154 63.5l-3-3.5h10v-2h-10l3-3.5-1.78-1.47L147 59l5.2 6.03zM160.96 28.54l-3.25-3.25-1.4 1.4 3.25 3.25z"/><path stroke="#fff" stroke-width="1.5" d="M152.5 27c3.04 0 5.5-2.46 5.5-5.5s-2.46-5.5-5.5-5.5-5.5 2.46-5.5 5.5 2.46 5.5 5.5 5.5z"/><path fill="#fff" d="M150 21h5v1h-5zm-33.04 7.54l-1.42 1.42-3.25-3.25 1.4-1.4 3.25 3.25z"/><path stroke="#fff" stroke-width="1.5" d="M108.5 27c3.04 0 5.5-2.46 5.5-5.5s-2.46-5.5-5.5-5.5-5.5 2.46-5.5 5.5 2.46 5.5 5.5 5.5z"/><path fill="#fff" d="M106 21h5v1h-5zm3.04-2l-.08 5h-1l.08-5z"/></g></svg>